inDegrees=no
num_controls=7
num_derivatives=13
num_iterations=130
num_multipliers=7
num_parameters=0
num_slacks=7
num_states=26
objective=5.234497
objective_accelerations=0.783538
objective_balance=0.022753
objective_effort=0.247261
objective_height=4.128988
objective_ligament=0.051957
solver_duration=1429.060616
status=Solve_Succeeded
success=true
DataType=double
version=3
OpenSimVersion=4.4-2022-07-23-0e9fedc
endheader
time	/jointset/ground_pelvis/pelvis_tilt/value	/jointset/ground_pelvis/pelvis_tx/value	/jointset/ground_pelvis/pelvis_ty/value	/jointset/hip_l/hip_flexion_l/value	/jointset/hip_l/hip_adduction_l/value	/jointset/hip_l/hip_rotation_l/value	/jointset/back/lumbar_extension/value	/jointset/patellofemoral_l/patellar_flexion_l/value	/jointset/knee_l/knee_flexion_l/value	/jointset/knee_l/knee_adduction_l/value	/jointset/knee_l/knee_rotation_l/value	/jointset/ankle_l/ankle_angle_l/value	/jointset/subtalar_l/subtalar_angle_l/value	/jointset/ground_pelvis/pelvis_tilt/speed	/jointset/ground_pelvis/pelvis_tx/speed	/jointset/ground_pelvis/pelvis_ty/speed	/jointset/hip_l/hip_flexion_l/speed	/jointset/hip_l/hip_adduction_l/speed	/jointset/hip_l/hip_rotation_l/speed	/jointset/back/lumbar_extension/speed	/jointset/patellofemoral_l/patellar_flexion_l/speed	/jointset/knee_l/knee_flexion_l/speed	/jointset/knee_l/knee_adduction_l/speed	/jointset/knee_l/knee_rotation_l/speed	/jointset/ankle_l/ankle_angle_l/speed	/jointset/subtalar_l/subtalar_angle_l/speed	/forceset/tau_hip_flexion_l	/forceset/tau_hip_adduction_l	/forceset/tau_hip_rotation_l	/forceset/tau_knee_flexion_l	/forceset/tau_ankle_angle_l	/forceset/tau_subtalar_angle_l	/forceset/tau_lumbar_extension	lambda_cid13_p0	lambda_cid13_p1	lambda_cid13_p2	lambda_cid13_p3	lambda_cid13_p4	lambda_cid13_p5	lambda_cid14_p0	/jointset/ground_pelvis/pelvis_tilt/accel	/jointset/ground_pelvis/pelvis_tx/accel	/jointset/ground_pelvis/pelvis_ty/accel	/jointset/hip_l/hip_flexion_l/accel	/jointset/hip_l/hip_adduction_l/accel	/jointset/hip_l/hip_rotation_l/accel	/jointset/back/lumbar_extension/accel	/jointset/patellofemoral_l/patellar_flexion_l/accel	/jointset/knee_l/knee_flexion_l/accel	/jointset/knee_l/knee_adduction_l/accel	/jointset/knee_l/knee_rotation_l/accel	/jointset/ankle_l/ankle_angle_l/accel	/jointset/subtalar_l/subtalar_angle_l/accel	gamma_cid13_p0	gamma_cid13_p1	gamma_cid13_p2	gamma_cid13_p3	gamma_cid13_p4	gamma_cid13_p5	gamma_cid14_p0
0.5	-0.447275406056165	-0.07685267187380615	0.7587528118267619	1.272204860625937	-0.3595282432811746	-0.03765281315596596	-0.4119367077502517	0.7657053221175649	0.7657053221175557	-0.066957989638709	-0.1745305559720196	0.04751471729191852	0.07516804928056285	-1.375909452835083	-0.4220139914560608	-0.5670070995121362	3.103110466840667	0.06636985291775729	0.4775798641912082	-0.2692841278879299	1.47941214204482	1.479412142044825	0.2392740930911356	0.0001734312621596873	-0.1320758330168542	0.02471980573524074	-0.1762013926328266	-0.003973697342558563	0.008126569566208898	-0.1503332197660217	0.1033122329390224	0.009918860218035669	0.1564242487984358	8.692158333580155	-4.741562901769414	-0.7679838827334877	-10.48023873393223	-433.7927899570968	-68.06859112115043	-12.6129352302636	0.643959846415438	0.8194818520903202	-0.4216371550556642	-1.941901700340599	0.1705122020999755	-0.4576186618951245	1.704116793705893	-1.175225762326542	-1.175225762326447	-0.3711726454312318	0.09412363193458941	-0.01674470652902159	0.1728410004443006	-1.060074401593963e-07	-1.187268053657067e-06	1.070759785882367e-07	-2.352221044086894e-07	-4.406963438818707e-07	4.730125841234856e-07	-2.757048227770875e-07
0.51	-0.4609992688102851	-0.08103124651957631	0.7530631251788164	1.303132892581263	-0.3588577342170723	-0.03290285174546297	-0.4145457747342033	0.7804381515373021	0.7804381515373129	-0.06458548571132273	-0.1745275746968696	0.04619281738058303	0.07542203346429298	-1.368684723027709	-0.4136532848419869	-0.5707947760952341	3.082073191782246	0.06770639042680281	0.4722840382968194	-0.2525351447309899	1.466931396993729	1.466931396993787	0.2352393928880208	0.0003501324030214436	-0.1322987446095431	0.02605313855806108	-0.183443733896945	-0.003514012215498681	0.007547339895599779	-0.1508878409941225	0.1053275657331832	0.01082480083706213	0.1614312239128315	9.169247284227454	-5.063857980876709	-0.8932940037205062	-10.8934254075018	-437.952032273157	-68.32355838665265	-12.00294630019764	0.7884428564844039	0.851468400497875	-0.3371025925015991	-2.248100052364112	0.1115743643263256	-0.5850380298161901	1.659407702333111	-1.317795241517574	-1.317795241509539	-0.4179569109303346	-0.03137168976954093	-0.02430230197246677	0.1101543463682946	-1.095029022082665e-07	-1.057568160509805e-06	2.245628408052868e-07	-2.110253470550906e-07	-4.322955939491511e-07	5.044342622209247e-07	-2.725952694330828e-07
0.52	-0.4746455416046133	-0.08512479343231939	0.747339607828527	1.333837859857256	-0.3581745898100733	-0.02820974328922127	-0.4169875281614549	0.7950395142335451	0.7950395142335303	-0.06225299642670263	-0.1745249894192007	0.04486884077005404	0.07568866596088467	-1.3603914608769	-0.405008444850638	-0.5737732399809046	3.058497530972973	0.06889692149661865	0.4662092733382155	-0.235821416548249	1.453118797341955	1.453118797342068	0.2312711645577634	9.423174661560221e-05	-0.1324911728555767	0.02724946830757727	-0.1906860751610018	-0.003054327088407841	0.006968110224607806	-0.1514424622222059	0.10734289852735	0.01173074145612841	0.1664381990272863	9.646056634811803	-5.386722328539265	-1.017807461842589	-11.31288138634759	-442.1182375798538	-68.62225923120809	-11.39586764034526	0.8576663151025904	0.8763085275453545	-0.2597946155701739	-2.449578850511147	0.1413109142539191	-0.613406474738331	1.697065798866073	-1.44159668246296	-1.441596682462695	-0.3578782708598179	0.007603272480814383	-0.01064803719789676	0.1454403857833824	-1.09514322369817e-07	-9.18796715928604e-07	3.246332377842587e-07	-1.868916001329034e-07	-4.189538310600637e-07	5.259234148479847e-07	-2.639837599042521e-07
0.53	-0.4882036165984272	-0.08913057370215186	0.7415903513830181	1.364294723924209	-0.357480285465796	-0.02357883900662095	-0.4192624858397395	0.8094963262336021	0.8094963262336889	-0.05996115566940005	-0.1745252667508169	0.04354316980825341	0.07596655643136112	-1.351040969875241	-0.3961092403056439	-0.5759405691225475	3.032464828946158	0.06993864565991502	0.4600195727071736	-0.2192050681913578	1.438038500859109	1.438038500859601	0.2270067846927442	-9.0256636560297e-05	-0.1326314646751285	0.02830474336922841	-0.1979315456213571	-0.002692043174587891	0.006382008685249654	-0.1519230041576815	0.1092040946812729	0.012518921031134	0.1713624220402049	10.06383280620732	-5.653091261552897	-1.145634281844796	-11.64282589420567	-446.2934289475935	-68.81542532403468	-10.79239601245507	1.001085318975281	0.9024468965214609	-0.1746624529122564	-2.741731154107637	0.08192401554963302	-0.6147604828664224	1.638676991642028	-1.571959511891867	-1.571959511835153	-0.4744326589221124	-0.0224402609430151	-0.01402208726749582	0.0820789073465002	-8.88024995167143e-08	-9.161774857026728e-07	1.23606534873555e-07	-2.092754678715132e-07	-3.569990757592268e-07	4.878546790762402e-07	-2.368503707429839e-07
0.54	-0.5016627177169671	-0.09304621783082544	0.7358235295682025	1.394478937915832	-0.3567762997102463	-0.01900843345544385	-0.4213723285069459	0.8237961925927783	0.8237961925927834	-0.05771470167402848	-0.1745255820394785	0.04221643546167073	0.07625430122065206	-1.340596685822486	-0.3869812166188619	-0.5772863138422223	3.003967515905693	0.07083320375048491	0.4541095270529762	-0.2027984143328127	1.421729669148409	1.421729669149278	0.2221938122437738	8.66402912033219e-05	-0.1327038498120266	0.02922033207050102	-0.205177016081673	-0.002329759260735785	0.005795907144378737	-0.1524035460931257	0.1110652908352074	0.01330710060619218	0.1762866450531622	10.48071038398321	-5.920599645111349	-1.271798078695729	-11.9809102738698	-450.4879453460073	-69.05710958047469	-10.1932685859911	1.076424925321627	0.9220723559029496	-0.0954777311765545	-2.942501053241179	0.1118776997084935	-0.5574754793695079	1.655126899196837	-1.687303728033609	-1.687303728033724	-0.4675967876500565	0.07988033466862582	0.00293329933290039	0.1175031137076488	-4.516283332825034e-08	-1.064194747954914e-06	-4.105488742980703e-07	-2.831256326816437e-07	-2.412597331092197e-07	3.838921093313494e-07	-1.892246892224228e-07
0.55	-0.5150123756276299	-0.0968695201649491	0.7300473605766264	1.424366504928375	-0.3560634612711871	-0.01449913424783707	-0.4233191188977102	0.8379270646689111	0.8379270646688797	-0.05551568038107943	-0.1745243226534388	0.04088954811680545	0.076551291114627	-1.329179012172355	-0.37764664766051	-0.5778070387693288	2.973159345444553	0.07171970618317314	0.4476417868754227	-0.1866131165421753	1.404240469165704	1.40424046916642	0.2176462317692469	0.0001232291055394062	-0.1326566466738975	0.03016842684117278	-0.2121280266084745	-0.002186501798953854	0.005154282022891915	-0.1532153641565181	0.1133947446231859	0.01397328654618738	0.1809369065868127	11.04186796813704	-6.147109409790554	-1.419665926091415	-12.41273954922581	-454.6709498457343	-69.26249201644984	-9.599297947730383	1.197786446173668	0.9439748661697102	-0.00933864375105861	-3.207992321767065	0.07510284556629027	-0.7078182911962336	1.592213310630606	-1.810337020033141	-1.810337020056017	-0.443243797366954	-0.04083485474269397	0.0081038856581636	0.08234534149455526	-5.726399182589516e-08	-8.872260179169515e-07	-1.376726809206909e-07	-2.315843619566824e-07	-2.43459493387182e-07	4.435939086532477e-07	-1.953081968520058e-07
0.5600000000000001	-0.5282431872295266	-0.1005985116694155	0.7242701905817246	1.453934386780469	-0.3553421445416958	-0.01005779144285172	-0.4251056598922409	0.8518769229678351	0.8518769229678756	-0.05336111591665547	-0.1745239739812804	0.03956363081624267	0.07685753849285804	-1.316827424069629	-0.3681190506874129	-0.577486514507363	2.940030483814756	0.07252886183655061	0.4405182465279427	-0.1707485350862027	1.385526913717233	1.385526913717797	0.2133024464942023	-9.550246246839962e-05	-0.132509840951558	0.03107182892175129	-0.2190790371352438	-0.002043244337147932	0.004512656902334581	-0.1540271822199215	0.1157241984111637	0.01463947248619842	0.1855871681204923	11.60086736631923	-6.373756409471514	-1.566924132531434	-12.84546019732885	-458.8925014867881	-69.49406662937422	-9.011535326801404	1.263207815840375	0.9606779588520344	0.0727721066379092	-3.4066392869725	0.09640834384635587	-0.6886355133548415	1.590983632263858	-1.932174821186678	-1.932174821186811	-0.4268377477536139	0.02881625819979058	0.022853816175023	0.1085645756889862	-1.362541399468684e-07	-3.202740971307559e-07	1.103641435515463e-06	-2.957336858961588e-08	-3.871861771787031e-07	6.996929508552863e-07	-2.658427314617597e-07
0.5700000000000001	-0.5413457852667213	-0.1042314115629711	0.7185003759395889	1.483159615026366	-0.3546137327604955	-0.005685722427665966	-0.4267352431070319	0.8656336601183429	0.8656336601184528	-0.05125340323687185	-0.1745238626558059	0.03823946160664325	0.07717183163328883	-1.303527341014318	-0.3584438826722236	-0.5763404812433615	2.904654274739965	0.07315812457047687	0.4337844988011126	-0.1552352325034541	1.365648507151114	1.365648507150818	0.208317783988318	8.363876803374666e-05	-0.1323022420640482	0.03179945317431327	-0.2261937685455817	-0.001773870022439765	0.003885327208624782	-0.1542412251888008	0.1171045756842432	0.01517142499056592	0.1902405758344764	11.85028995164879	-6.517368132105562	-1.693762092833841	-12.95051622722328	-462.9514110658389	-69.51523234977792	-8.431021380565758	1.388100701969108	0.9735099647146842	0.1558151405247623	-3.657289510040716	0.0466929111443466	-0.6826629986109114	1.521434876499908	-2.041413811037271	-2.041413811166048	-0.522609427549799	0.007711706643555864	0.02298782323415522	0.056545350844112	-1.786611735300916e-07	1.027460019165507e-08	1.789173972085096e-06	8.766072582927398e-08	-4.558527149402309e-07	8.467693183381651e-07	-3.011014208380905e-07
0.58	-0.5543104440430443	-0.1077670450280024	0.7127460808709418	1.512020245623065	-0.3538789268173596	-0.001384374608963749	-0.4282117070349499	0.8791864651558458	0.8791864651559977	-0.04919320296736675	-0.1745229101877738	0.03691802336555821	0.07749373781640603	-1.289239571895308	-0.3486657649825542	-0.5743825998096102	2.867110953972841	0.07380769422351663	0.4263740072237394	-0.1401246777119249	1.344740491116488	1.344740491115334	0.2037999644606917	7.272604526351994e-05	-0.1319636472487292	0.03259443745905297	-0.2333084999558136	-0.00150449570758221	0.003257997514575644	-0.1544552681576615	0.1184849529573556	0.01570337749510218	0.1948939835485507	12.09878414774139	-6.663325156274517	-1.8173609150621	-13.07887454962293	-467.0399793381264	-69.60706558199763	-7.862868410908866	1.460745028580322	0.9812678937480989	0.2351417405878773	-3.840061625439227	0.1004697276690034	-0.8239842834635299	1.510434074020004	-2.138096714887991	-2.138096714887883	-0.3334691521020247	-0.009194532454722648	0.04905300173689168	0.1220365821245242	-1.734250812036885e-07	3.294933207286816e-08	1.750897939526262e-06	9.448769603658852e-08	-4.267665043836313e-07	8.518626675821423e-07	-2.90419474561593e-07
0.59	-0.5671276069636402	-0.1112044209485123	0.7070154181165621	1.540494882617145	-0.3531377573037428	0.002840488282492279	-0.4295391779607838	0.8925249947820362	0.8925249947820244	-0.04717690945339752	-0.1745225135370059	0.0356005770923435	0.07782366234363469	-1.274043068933506	-0.3387943792761537	-0.5716125817916062	2.827459091560684	0.07439661697378247	0.4185843101794394	-0.1254649409590017	1.322786014810768	1.322786014809866	0.1994116798167268	1.249323722858275e-05	-0.1315087134085353	0.03336486012733974	-0.2400239948492253	-0.001655368043759071	0.002687781278803983	-0.1550596167459415	0.1203565499390972	0.01615517416504639	0.1992072302360106	12.50594796018755	-6.789368899107498	-1.958851197972864	-13.30222913485414	-471.0244790027064	-69.72266637360052	-7.321187041085954	1.571563963769389	0.9923495831021717	0.3184552784060686	-4.08139091156899	0.03347734140828753	-0.7588397866386284	1.429428450269508	-2.250979152493657	-2.250979152455912	-0.4985452153038874	-0.003202625003385987	0.04625972036727721	0.05049171441483651	-1.673207835196219e-07	6.08669982211638e-08	1.715587328037445e-06	1.022921609073253e-07	-3.946388501796705e-07	8.506777597782758e-07	-2.784333595787585e-07
